HIERARCHY
ROOT hip
{
  OFFSET 0 90.174 2.4664
  CHANNELS 6 Xposition Yposition Zposition Zrotation Xrotation Yrotation
  JOINT abdomen
  {
    OFFSET 0 -1.186 -1.5018
    CHANNELS 6 Xposition Yposition Zposition Zrotation Xrotation Yrotation
    JOINT abdomen2
    {
      OFFSET 0 9.964 0.2134
      CHANNELS 6 Xposition Yposition Zposition Zrotation Xrotation Yrotation
      JOINT chest
      {
        OFFSET 0 13.134 -3.2573
        CHANNELS 6 Xposition Yposition Zposition Zrotation Xrotation Yrotation
        JOINT neck
        {
          OFFSET 0 20.686 -1.6905
          CHANNELS 6 Xposition Yposition Zposition Zrotation Xrotation Yrotation
          JOINT head
          {
            OFFSET 0 7.238 -0.1237
            CHANNELS 6 Xposition Yposition Zposition Zrotation Xrotation Yrotation
            End Site
            {
              OFFSET 0 0 0
            }
          }
        }
        JOINT lCollar
        {
          OFFSET 1.7069 20.075 5.0056
          CHANNELS 6 Xposition Yposition Zposition Zrotation Xrotation Yrotation
          JOINT lShldr
          {
            OFFSET 13.6458 -0.047 -4.849
            CHANNELS 6 Xposition Yposition Zposition Zrotation Xrotation Yrotation
            JOINT lForeArm
            {
              OFFSET 28.3255 -0.9759 2.2888
              CHANNELS 6 Xposition Yposition Zposition Zrotation Xrotation Yrotation
              JOINT lHand
              {
                OFFSET 22.1583 -0.53 10.8316
                CHANNELS 6 Xposition Yposition Zposition Zrotation Xrotation Yrotation
                JOINT lThumb1
                {
                  OFFSET 0.786 0.112 2.5817
                  CHANNELS 6 Xposition Yposition Zposition Zrotation Xrotation Yrotation
                  JOINT lThumb2
                  {
                    OFFSET 0.3601 -0.878 4.2331
                    CHANNELS 6 Xposition Yposition Zposition Zrotation Xrotation Yrotation
                    JOINT lThumb2_End
                    {
                      OFFSET 1.8127 -1.216 2.2227
                      CHANNELS 6 Xposition Yposition Zposition Zrotation Xrotation Yrotation
                      End Site
                      {
                        OFFSET 0.0181 -0.0122 0.0222
                      }
                    }
                  }
                }
                JOINT lCarpal1
                {
                  OFFSET 0.9571 1.114 1.7695
                  CHANNELS 6 Xposition Yposition Zposition Zrotation Xrotation Yrotation
                  JOINT lIndex1
                  {
                    OFFSET 4.1246 0.487 4.1451
                    CHANNELS 6 Xposition Yposition Zposition Zrotation Xrotation Yrotation
                    JOINT lIndex2
                    {
                      OFFSET 3.4052 -1.454 2.7682
                      CHANNELS 6 Xposition Yposition Zposition Zrotation Xrotation Yrotation
                      JOINT lIndex2_End
                      {
                        OFFSET 1.4531 -1.795 1.2713
                        CHANNELS 6 Xposition Yposition Zposition Zrotation Xrotation Yrotation
                        End Site
                        {
                          OFFSET 0.0145 -0.0179 0.0127
                        }
                      }
                    }
                  }
                  JOINT lMid1
                  {
                    OFFSET 5.6954 0.21 2.1184
                    CHANNELS 6 Xposition Yposition Zposition Zrotation Xrotation Yrotation
                    JOINT lMid2
                    {
                      OFFSET 3.9766 -1.54 2.3863
                      CHANNELS 6 Xposition Yposition Zposition Zrotation Xrotation Yrotation
                      JOINT lMid2_End
                      {
                        OFFSET 1.4042 -1.926 1.125
                        CHANNELS 6 Xposition Yposition Zposition Zrotation Xrotation Yrotation
                        End Site
                        {
                          OFFSET 0.014 -0.0193 0.0113
                        }
                      }
                    }
                  }
                }
                JOINT lCarpal2
                {
                  OFFSET 2.0956 0.66 -0.3894
                  CHANNELS 6 Xposition Yposition Zposition Zrotation Xrotation Yrotation
                  JOINT lRing1
                  {
                    OFFSET 5.0395 -0.09 2.4971
                    CHANNELS 6 Xposition Yposition Zposition Zrotation Xrotation Yrotation
                    JOINT lRing2
                    {
                      OFFSET 3.7921 -1.552 1.4806
                      CHANNELS 6 Xposition Yposition Zposition Zrotation Xrotation Yrotation
                      JOINT lRing2_End
                      {
                        OFFSET 1.4655 -1.808 0.9609
                        CHANNELS 6 Xposition Yposition Zposition Zrotation Xrotation Yrotation
                        End Site
                        {
                          OFFSET 0.0147 -0.0181 0.0096
                        }
                      }
                    }
                  }
                  JOINT lPinky1
                  {
                    OFFSET 4.9141 -1.269 0.3591
                    CHANNELS 6 Xposition Yposition Zposition Zrotation Xrotation Yrotation
                    JOINT lPinky2
                    {
                      OFFSET 3.1477 -1.685 0.8462
                      CHANNELS 6 Xposition Yposition Zposition Zrotation Xrotation Yrotation
                      JOINT lPinky2_End
                      {
                        OFFSET 0.8055 -1.585 0.7955
                        CHANNELS 6 Xposition Yposition Zposition Zrotation Xrotation Yrotation
                        End Site
                        {
                          OFFSET 0.0081 -0.0158 0.008
                        }
                      }
                    }
                  }
                }
              }
            }
          }
        }
        JOINT rCollar
        {
          OFFSET -1.7069 20.075 5.0056
          CHANNELS 6 Xposition Yposition Zposition Zrotation Xrotation Yrotation
          JOINT rShldr
          {
            OFFSET -13.6458 -0.047 -4.849
            CHANNELS 6 Xposition Yposition Zposition Zrotation Xrotation Yrotation
            JOINT rForeArm
            {
              OFFSET -28.3255 -0.9759 2.2888
              CHANNELS 6 Xposition Yposition Zposition Zrotation Xrotation Yrotation
              JOINT rHand
              {
                OFFSET -22.1583 -0.53 10.8316
                CHANNELS 6 Xposition Yposition Zposition Zrotation Xrotation Yrotation
                JOINT rThumb1
                {
                  OFFSET -0.786 0.112 2.5817
                  CHANNELS 6 Xposition Yposition Zposition Zrotation Xrotation Yrotation
                  JOINT rThumb2
                  {
                    OFFSET -0.3601 -0.878 4.2331
                    CHANNELS 6 Xposition Yposition Zposition Zrotation Xrotation Yrotation
                    JOINT rThumb2_End
                    {
                      OFFSET -1.8127 -1.216 2.2227
                      CHANNELS 6 Xposition Yposition Zposition Zrotation Xrotation Yrotation
                      End Site
                      {
                        OFFSET -0.0181 -0.0122 0.0222
                      }
                    }
                  }
                }
                JOINT rCarpal1
                {
                  OFFSET -0.9571 1.114 1.7695
                  CHANNELS 6 Xposition Yposition Zposition Zrotation Xrotation Yrotation
                  JOINT rIndex1
                  {
                    OFFSET -4.1246 0.487 4.1451
                    CHANNELS 6 Xposition Yposition Zposition Zrotation Xrotation Yrotation
                    JOINT rIndex2
                    {
                      OFFSET -3.4052 -1.454 2.7682
                      CHANNELS 6 Xposition Yposition Zposition Zrotation Xrotation Yrotation
                      JOINT rIndex2_End
                      {
                        OFFSET -1.4531 -1.795 1.2713
                        CHANNELS 6 Xposition Yposition Zposition Zrotation Xrotation Yrotation
                        End Site
                        {
                          OFFSET -0.0145 -0.018 0.0127
                        }
                      }
                    }
                  }
                  JOINT rMid1
                  {
                    OFFSET -5.6954 0.21 2.1184
                    CHANNELS 6 Xposition Yposition Zposition Zrotation Xrotation Yrotation
                    JOINT rMid2
                    {
                      OFFSET -3.9766 -1.54 2.3863
                      CHANNELS 6 Xposition Yposition Zposition Zrotation Xrotation Yrotation
                      JOINT rMid2_End
                      {
                        OFFSET -1.4042 -1.926 1.125
                        CHANNELS 6 Xposition Yposition Zposition Zrotation Xrotation Yrotation
                        End Site
                        {
                          OFFSET -0.014 -0.0193 0.0113
                        }
                      }
                    }
                  }
                }
                JOINT rCarpal2
                {
                  OFFSET -2.0956 0.66 -0.3894
                  CHANNELS 6 Xposition Yposition Zposition Zrotation Xrotation Yrotation
                  JOINT rRing1
                  {
                    OFFSET -5.0395 -0.09 2.4971
                    CHANNELS 6 Xposition Yposition Zposition Zrotation Xrotation Yrotation
                    JOINT rRing2
                    {
                      OFFSET -3.7921 -1.552 1.4806
                      CHANNELS 6 Xposition Yposition Zposition Zrotation Xrotation Yrotation
                      JOINT rRing2_End
                      {
                        OFFSET -1.4655 -1.808 0.9609
                        CHANNELS 6 Xposition Yposition Zposition Zrotation Xrotation Yrotation
                        End Site
                        {
                          OFFSET -0.0147 -0.0181 0.0096
                        }
                      }
                    }
                  }
                  JOINT rPinky1
                  {
                    OFFSET -4.9141 -1.269 0.3592
                    CHANNELS 6 Xposition Yposition Zposition Zrotation Xrotation Yrotation
                    JOINT rPinky2
                    {
                      OFFSET -3.1477 -1.685 0.8462
                      CHANNELS 6 Xposition Yposition Zposition Zrotation Xrotation Yrotation
                      JOINT rPinky2_End
                      {
                        OFFSET -0.8055 -1.585 0.7955
                        CHANNELS 6 Xposition Yposition Zposition Zrotation Xrotation Yrotation
                        End Site
                        {
                          OFFSET -0.0081 -0.0158 0.008
                        }
                      }
                    }
                  }
                }
              }
            }
          }
        }
      }
    }
  }
  JOINT lThigh
  {
    OFFSET 8.367 -8.2066 0.5982
    CHANNELS 6 Xposition Yposition Zposition Zrotation Xrotation Yrotation
    JOINT lShin
    {
      OFFSET 2.1923 -43.463 -0.4932
      CHANNELS 6 Xposition Yposition Zposition Zrotation Xrotation Yrotation
      JOINT lFoot
      {
        OFFSET 0.7333 -45.8593 -2.6451
        CHANNELS 6 Xposition Yposition Zposition Zrotation Xrotation Yrotation
        End Site
        {
          OFFSET 2.6618 -4.2699 12.3931
        }
      }
    }
  }
  JOINT rThigh
  {
    OFFSET -8.367 -8.2066 0.5982
    CHANNELS 6 Xposition Yposition Zposition Zrotation Xrotation Yrotation
    JOINT rShin
    {
      OFFSET -2.1923 -43.463 -0.4931
      CHANNELS 6 Xposition Yposition Zposition Zrotation Xrotation Yrotation
      JOINT rFoot
      {
        OFFSET -0.7333 -45.8593 -2.6451
        CHANNELS 6 Xposition Yposition Zposition Zrotation Xrotation Yrotation
        End Site
        {
          OFFSET -2.6618 -4.2699 12.3931
        }
      }
    }
  }
}
MOTION
Frames:	4
Frame Time:	0.0333333
0 90.174 2.4664 0 0 -0 0 -1.186 -1.5018 0 0 -0 0 9.964 0.2134 0 0 -0 0 13.134 -3.2573 0 0 -0 0 20.686 -1.6905 0 0 -0 0 7.238 -0.1237 0 0 -0 1.7069 20.075 5.0056 0 0 -0 13.6458 -0.047 -4.849 1.66051 0.0835086 5.75766 28.3255 -0.9759 2.2888 -0.0175111 0.895433 15.7816 22.1583 -0.53 10.8316 7.95139e-016 -1.98785e-016 -0 0.786 0.112 2.5817 5.46658e-016 -3.97569e-016 -0 0.3601 -0.878 4.2331 5.96354e-016 0 -0 1.8127 -1.216 2.2227 3.97569e-016 1.98785e-016 9.54166e-015 0.9571 1.114 1.7695 1.49089e-016 -3.97569e-016 -0 4.1246 0.487 4.1451 6.4605e-016 0 3.18055e-015 3.4052 -1.454 2.7682 5.96354e-016 0 3.18055e-015 1.4531 -1.795 1.2713 8.94531e-016 -1.98785e-016 6.36111e-015 5.6954 0.21 2.1184 6.4605e-016 0 3.18055e-015 3.9766 -1.54 2.3863 5.96354e-016 0 3.18055e-015 1.4042 -1.926 1.125 8.94531e-016 -1.98785e-016 6.36111e-015 2.0956 0.66 -0.3894 1.49089e-016 -3.97569e-016 -0 5.0395 -0.09 2.4971 6.4605e-016 0 3.18055e-015 3.7921 -1.552 1.4806 5.96354e-016 0 3.18055e-015 1.4655 -1.808 0.9609 8.94531e-016 -1.98785e-016 6.36111e-015 4.9141 -1.269 0.3591 6.4605e-016 0 3.18055e-015 3.1477 -1.685 0.8462 5.96354e-016 0 3.18055e-015 0.8055 -1.585 0.7955 8.94531e-016 -1.98785e-016 6.36111e-015 -1.7069 20.075 5.0056 0 0 -0 -13.6458 -0.047 -4.849 -1.4496 0.0636048 -5.0245 -28.3255 -0.9759 2.2888 -1.74811 1.20616 -16.8394 -22.1583 -0.53 10.8316 -1.19271e-015 1.98785e-016 -3.18055e-015 -0.786 0.112 2.5817 -3.97569e-016 1.98785e-016 -3.18055e-015 -0.3601 -0.878 4.2331 -2.98177e-016 1.98785e-016 -3.18055e-015 -1.8127 -1.216 2.2227 -2.98177e-016 3.97569e-016 -0 -0.9571 1.114 1.7695 4.96962e-016 0 -6.36111e-015 -4.1246 0.487 4.1451 -9.93923e-017 3.97569e-016 -0 -3.4052 -1.454 2.7682 -8.94531e-016 5.96354e-016 -0 -1.4531 -1.795 1.2713 -3.97569e-016 3.97569e-016 -0 -5.6954 0.21 2.1184 -9.93923e-017 3.97569e-016 -0 -3.9766 -1.54 2.3863 -8.94531e-016 5.96354e-016 -0 -1.4042 -1.926 1.125 -3.97569e-016 3.97569e-016 -0 -2.0956 0.66 -0.3894 4.96962e-016 0 -6.36111e-015 -5.0395 -0.09 2.4971 -9.93923e-017 3.97569e-016 -0 -3.7921 -1.552 1.4806 -8.94531e-016 5.96354e-016 -0 -1.4655 -1.808 0.9609 -3.97569e-016 3.97569e-016 -0 -4.9141 -1.269 0.3592 -9.93923e-017 3.97569e-016 -0 -3.1477 -1.685 0.8462 -8.94531e-016 5.96354e-016 -0 -0.8055 -1.585 0.7955 -3.97569e-016 3.97569e-016 -0 8.367 -8.2066 0.5982 -4.66115 -1.03232 0.120763 2.1923 -43.463 -0.4932 0.00990601 1.55097 0.177175 0.7333 -45.8593 -2.6451 4.65196 -0.54114 -0.255042 -8.367 -8.2066 0.5982 4.66115 -1.03222 -0.120763 -2.1923 -43.463 -0.4931 -0.00990459 1.5509 -0.177176 -0.7333 -45.8593 -2.6451 -4.65196 -0.541171 0.255041 
11.279 44.7311 23.8045 -2.22084 0.00441499 -116.345 0 -1.186 -1.5018 -1.16725 8.07892 1.35963 0 9.964 0.2134 -2.56884 16.1255 2.93139 0 13.134 -3.2573 -2.56884 16.1255 2.9314 0 20.686 -1.6905 -0.00453596 -28.171 -0.00138289 3.55271e-015 7.238 -0.1237 -0.0123501 -22.9902 -0.00522353 1.7069 20.075 5.0056 -16.1201 -9.40057 -10.4202 13.6458 -0.047 -4.849 -25.5219 2.83317 -3.4858 28.3255 -0.9759 2.2888 19.3846 -6.62225 -1.90307 22.1583 -0.53 10.8316 -10.1589 5.17405 -4.5497 0.786 0.112 2.5817 1.32417e-030 4.77083e-015 -1.59028e-014 0.3601 -0.878 4.2331 -6.36111e-015 7.95139e-015 -1.27222e-014 1.8127 -1.216 2.2227 3.53113e-031 3.18055e-015 -6.36111e-015 0.9571 1.114 1.7695 -1.76556e-031 -1.59028e-015 -6.36111e-015 4.1246 0.487 4.1451 -9.54166e-015 2.06736e-014 3.18055e-015 3.4052 -1.454 2.7682 -3.18055e-015 1.59028e-015 -6.36111e-015 1.4531 -1.795 1.2713 -6.36111e-015 3.18055e-015 -1.27222e-014 5.6954 0.21 2.1184 -9.54166e-015 2.06736e-014 3.18055e-015 3.9766 -1.54 2.3863 -3.18055e-015 1.59028e-015 -6.36111e-015 1.4042 -1.926 1.125 -6.36111e-015 3.18055e-015 -1.27222e-014 2.0956 0.66 -0.3894 -1.76556e-031 -1.59028e-015 -6.36111e-015 5.0395 -0.09 2.4971 -9.54166e-015 2.06736e-014 3.18055e-015 3.7921 -1.552 1.4806 -3.18055e-015 1.59028e-015 -6.36111e-015 1.4655 -1.808 0.9609 -6.36111e-015 3.18055e-015 -1.27222e-014 4.9141 -1.269 0.3591 -9.54166e-015 2.06736e-014 3.18055e-015 3.1477 -1.685 0.8462 -3.18055e-015 1.59028e-015 -6.36111e-015 0.8055 -1.585 0.7955 -6.36111e-015 3.18055e-015 -1.27222e-014 -1.7069 20.075 5.0056 17.7077 -1.52229 19.6087 -13.6458 -0.047 -4.849 23.9073 9.72052 18.7104 -28.3255 -0.9759 2.2888 -14.9754 -4.14084 2.96874 -22.1583 -0.53 10.8316 -22.8842 -8.73069 -2.39647 -0.786 0.112 2.5817 3.18055e-015 0 -0 -0.3601 -0.878 4.2331 3.18055e-015 1.59028e-015 -4.77083e-015 -1.8127 -1.216 2.2227 1.27222e-014 1.59028e-015 -3.18055e-015 -0.9571 1.114 1.7695 2.20695e-032 -7.95139e-016 1.59028e-015 -4.1246 0.487 4.1451 -6.36111e-015 -9.54166e-015 3.18055e-015 -3.4052 -1.454 2.7682 2.20695e-032 7.95139e-016 -1.59028e-015 -1.4531 -1.795 1.2713 6.36111e-015 7.95139e-016 -0 -5.6954 0.21 2.1184 -6.36111e-015 -9.54166e-015 3.18055e-015 -3.9766 -1.54 2.3863 2.20695e-032 7.95139e-016 -1.59028e-015 -1.4042 -1.926 1.125 6.36111e-015 7.95139e-016 -0 -2.0956 0.66 -0.3894 2.20695e-032 -7.95139e-016 1.59028e-015 -5.0395 -0.09 2.4971 -6.36111e-015 -9.54166e-015 3.18055e-015 -3.7921 -1.552 1.4806 2.20695e-032 7.95139e-016 -1.59028e-015 -1.4655 -1.808 0.9609 6.36111e-015 7.95139e-016 -0 -4.9141 -1.269 0.3592 -6.36111e-015 -9.54166e-015 3.18055e-015 -3.1477 -1.685 0.8462 2.20695e-032 7.95139e-016 -1.59028e-015 -0.8055 -1.585 0.7955 6.36111e-015 7.95139e-016 -0 8.367 -8.2066 0.5982 5.41321 -50.9204 41.5704 2.1923 -43.463 -0.4932 154.02 59.5194 -174.362 0.7333 -45.8593 -2.6451 1.16154 33.6595 -8.24719 -8.367 -8.2066 0.5982 -5.4841 -50.8939 -41.5213 -2.1923 -43.463 -0.4931 -153.942 59.5862 174.361 -0.7333 -45.8593 -2.6451 -1.08361 33.6919 8.27136 
19.6568 24.5036 32.3468 -3.21012 0.01414 -168.7 1.77636e-015 -1.186 -1.5018 -2.48681 11.1643 1.84387 3.55271e-015 9.964 0.2134 -5.50725 22.2282 4.3167 0 13.134 -3.2573 -5.50724 22.2282 4.3167 8.88178e-016 20.686 -1.6905 0.0158693 -40.7426 0.00518824 -8.88178e-016 7.238 -0.1237 0.0470873 -33.2112 0.0201105 1.7069 20.075 5.0056 -24.7241 -13.5146 -15.3441 13.6458 -0.047 -4.849 -37.1499 4.00002 -7.54968 28.3255 -0.9759 2.2888 26.9467 -9.35072 -9.6578 22.1583 -0.53 10.8316 -14.7066 7.44938 -6.37346 0.786 0.112 2.5817 -1.59028e-015 3.18055e-015 4.77083e-015 0.3601 -0.878 4.2331 -3.88897e-008 -1.43021e-006 -9.05318e-007 1.8127 -1.216 2.2227 3.88897e-008 1.43021e-006 9.05318e-007 0.9571 1.114 1.7695 -1.59028e-015 3.18055e-015 3.18055e-015 4.1246 0.487 4.1451 -1.98785e-015 -1.59028e-015 6.36111e-015 3.4052 -1.454 2.7682 -3.88897e-008 -1.43021e-006 -9.05318e-007 1.4531 -1.795 1.2713 3.88897e-008 1.43021e-006 9.05318e-007 5.6954 0.21 2.1184 -1.98785e-015 -1.59028e-015 6.36111e-015 3.9766 -1.54 2.3863 -3.88897e-008 -1.43021e-006 -9.05318e-007 1.4042 -1.926 1.125 3.88897e-008 1.43021e-006 9.05318e-007 2.0956 0.66 -0.3894 -1.59028e-015 3.18055e-015 3.18055e-015 5.0395 -0.09 2.4971 -1.98785e-015 -1.59028e-015 6.36111e-015 3.7921 -1.552 1.4806 -3.88897e-008 -1.43021e-006 -9.05318e-007 1.4655 -1.808 0.9609 3.88897e-008 1.43021e-006 9.05318e-007 4.9141 -1.269 0.3591 -1.98785e-015 -1.59028e-015 6.36111e-015 3.1477 -1.685 0.8462 -3.88897e-008 -1.43021e-006 -9.05318e-007 0.8055 -1.585 0.7955 3.88897e-008 1.43021e-006 9.05318e-007 -1.7069 20.075 5.0056 26.0085 -1.93563 28.3726 -13.6458 -0.047 -4.849 32.4507 12.6528 29.8568 -28.3255 -0.9759 2.2888 -20.0705 -6.14525 11.9089 -22.1583 -0.53 10.8316 -33.6151 -12.2521 -4.57826 -0.786 0.112 2.5817 4.1139e-007 6.97303e-007 -2.65153e-007 -0.3601 -0.878 4.2331 -4.11389e-007 -6.97303e-007 2.65153e-007 -1.8127 -1.216 2.2227 8.22779e-007 1.39461e-006 -5.30306e-007 -0.9571 1.114 1.7695 9.54166e-015 0 -6.36111e-015 -4.1246 0.487 4.1451 4.11389e-007 6.97303e-007 -2.65153e-007 -3.4052 -1.454 2.7682 -4.11389e-007 -6.97303e-007 2.65153e-007 -1.4531 -1.795 1.2713 8.22779e-007 1.39461e-006 -5.30306e-007 -5.6954 0.21 2.1184 4.11389e-007 6.97303e-007 -2.65153e-007 -3.9766 -1.54 2.3863 -4.11389e-007 -6.97303e-007 2.65153e-007 -1.4042 -1.926 1.125 8.22779e-007 1.39461e-006 -5.30306e-007 -2.0956 0.66 -0.3894 9.54166e-015 0 -6.36111e-015 -5.0395 -0.09 2.4971 4.11389e-007 6.97303e-007 -2.65153e-007 -3.7921 -1.552 1.4806 -4.11389e-007 -6.97303e-007 2.65153e-007 -1.4655 -1.808 0.9609 8.22779e-007 1.39461e-006 -5.30306e-007 -4.9141 -1.269 0.3592 4.11389e-007 6.97303e-007 -2.65153e-007 -3.1477 -1.685 0.8462 -4.11389e-007 -6.97303e-007 2.65153e-007 -0.8055 -1.585 0.7955 8.22779e-007 1.39461e-006 -5.30306e-007 8.367 -8.2066 0.5982 20.4115 -64.6381 65.5131 2.1923 -43.463 -0.4932 150.317 5.95575 -175.898 0.7333 -45.8593 -2.6451 -7.03786 42.4787 -11.7118 -8.367 -8.2066 0.5982 -20.5419 -64.5317 -65.444 -2.1923 -43.463 -0.4931 -149.931 5.99324 176.161 -0.7333 -45.8593 -2.6451 7.4432 42.4242 11.5359 
17.4768 29.1348 30.0946 -2.99133 0.0123663 -157.066 1.77636e-015 -1.186 -1.5018 -2.16001 10.5158 1.75324 0 9.964 0.2134 -4.77596 20.9503 4.0201 -1.77636e-015 13.134 -3.2573 -4.77597 20.9504 4.02013 8.88178e-016 20.686 -1.6905 0.0606988 -37.716 0.0197607 -8.88178e-016 7.238 -0.1237 0.177637 -30.663 0.0753489 1.7069 20.075 5.0056 -23.2195 -12.9222 -14.2603 13.6458 -0.047 -4.849 -33.9047 3.7251 -6.39528 28.3255 -0.9759 2.2888 24.894 -8.54583 -7.57423 22.1583 -0.53 10.8316 -13.6961 6.9477 -5.97995 0.786 0.112 2.5817 -3.47873e-015 5.1684e-015 3.18055e-015 0.3601 -0.878 4.2331 5.26779e-015 3.57812e-015 -0 1.8127 -1.216 2.2227 -1.78906e-015 7.95139e-016 -0 0.9571 1.114 1.7695 -3.47873e-015 1.98785e-015 3.18055e-015 4.1246 0.487 4.1451 5.76476e-015 1.59028e-015 6.36111e-015 3.4052 -1.454 2.7682 -1.19271e-015 7.95139e-016 -0 1.4531 -1.795 1.2713 1.39149e-015 1.59028e-015 3.18055e-015 5.6954 0.21 2.1184 5.76476e-015 1.59028e-015 6.36111e-015 3.9766 -1.54 2.3863 -1.19271e-015 7.95139e-016 -0 1.4042 -1.926 1.125 1.39149e-015 1.59028e-015 3.18055e-015 2.0956 0.66 -0.3894 -3.47873e-015 1.98785e-015 3.18055e-015 5.0395 -0.09 2.4971 5.76476e-015 1.59028e-015 6.36111e-015 3.7921 -1.552 1.4806 -1.19271e-015 7.95139e-016 -0 1.4655 -1.808 0.9609 1.39149e-015 1.59028e-015 3.18055e-015 4.9141 -1.269 0.3591 5.76476e-015 1.59028e-015 6.36111e-015 3.1477 -1.685 0.8462 -1.19271e-015 7.95139e-016 -0 0.8055 -1.585 0.7955 1.39149e-015 1.59028e-015 3.18055e-015 -1.7069 20.075 5.0056 24.1686 -1.57043 26.2708 -13.6458 -0.047 -4.849 30.0734 12.1251 27.4213 -28.3255 -0.9759 2.2888 -18.7707 -5.66701 9.97734 -22.1583 -0.53 10.8316 -31.4969 -11.6191 -3.96628 -0.786 0.112 2.5817 -9.64477e-007 -1.32238e-006 4.45556e-007 -0.3601 -0.878 4.2331 3.18055e-015 -4.77083e-015 -0 -1.8127 -1.216 2.2227 -0 0 3.18055e-015 -0.9571 1.114 1.7695 3.18055e-015 1.59028e-015 -3.18055e-015 -4.1246 0.487 4.1451 -9.64477e-007 -1.32238e-006 4.45556e-007 -3.4052 -1.454 2.7682 -0 -4.77083e-015 -0 -1.4531 -1.795 1.2713 6.36111e-015 0 3.18055e-015 -5.6954 0.21 2.1184 -9.64477e-007 -1.32238e-006 4.45556e-007 -3.9766 -1.54 2.3863 -0 -4.77083e-015 -0 -1.4042 -1.926 1.125 6.36111e-015 0 3.18055e-015 -2.0956 0.66 -0.3894 3.18055e-015 1.59028e-015 -3.18055e-015 -5.0395 -0.09 2.4971 -9.64477e-007 -1.32238e-006 4.45556e-007 -3.7921 -1.552 1.4806 -0 -4.77083e-015 -0 -1.4655 -1.808 0.9609 6.36111e-015 0 3.18055e-015 -4.9141 -1.269 0.3592 -9.64477e-007 -1.32238e-006 4.45556e-007 -3.1477 -1.685 0.8462 -0 -4.77083e-015 -0 -0.8055 -1.585 0.7955 6.36111e-015 0 3.18055e-015 8.367 -8.2066 0.5982 22.4245 -63.6856 66.6825 2.1923 -43.463 -0.4932 150.577 17.0161 -176.532 0.7333 -45.8593 -2.6451 -6.94465 43.315 -8.27535 -8.367 -8.2066 0.5982 -22.4919 -63.614 -66.4435 -2.1923 -43.463 -0.4931 -150.284 17.1303 176.654 -0.7333 -45.8593 -2.6451 7.17681 43.2966 8.35142 
